<svg xmlns="http://www.w3.org/2000/svg" viewBox="0 0 64 64">
  <rect width="64" height="64" rx="18" fill="#fff5f7"/>
  <path
    fill="#e02448"
    d="M32 52s-3.3-2.6-7.1-5.9C15.5 38 10 32.1 10 24.9 10 18.9 14.8 14 20.8 14c3.5 0 6.9 1.7 9 4.5L32 21.4l2.2-2.9c2.1-2.8 5.5-4.5 9-4.5C49.2 14 54 18.9 54 24.9c0 7.2-5.5 13.1-14.9 21.2C35.3 49.4 32 52 32 52z"
  />
  <path
    fill="#ff6b8a"
    d="M20.5 18.8c-3.4 0-6.1 2.7-6.1 6.1 0 1.4.4 2.8 1.2 4 .6.9 2 .5 2-.6 0-3.6 2.9-6.6 6.5-6.6 1 0 1.4-1.3.5-1.9-1.2-.7-2.6-1-4.1-1z"
    opacity=".75"
  />
</svg>
